<?xml version="1.0" encoding="utf-8"?>
<!-- Generator: Adobe Illustrator 23.1.0, SVG Export Plug-In . SVG Version: 6.00 Build 0)  -->
<svg version="1.1" id="Layer_1" xmlns="http://www.w3.org/2000/svg" xmlns:xlink="http://www.w3.org/1999/xlink" x="0px" y="0px"
	 viewBox="0 0 1316.3 389.5" style="enable-background:new 0 0 1316.3 389.5;" xml:space="preserve">
<style type="text/css">
	.st0{fill:#E84545;}
</style>
<g>
	<path class="st0" d="M73.7,145.1c0,3.8,0.3,6.1,0.8,7s1.8,1.8,3.9,2.8l102.1,48.5c1.7,6.9,2.6,16.2,2.6,27.8v129.4
		c-13.1,10-27.7,17.3-43.8,21.9c-16.2,4.6-32.2,7-48,7s-31.7-2.3-47.7-7c-16-4.6-30.5-11.9-43.6-21.9v-95.4h74.8v66
		c0,3.4,1.9,5.2,5.7,5.2h23.2c3.8,0,5.7-1.7,5.7-5.2v-79.4c0-4.8-0.3-7.9-0.8-9.3c-0.5-1.4-2.7-2.9-6.5-4.6l-100-47.4
		c-0.7-3.4-1.2-7.9-1.5-13.4s-0.5-10.3-0.5-14.4V29C13.2,19,27.7,11.7,43.7,7.1s31.9-7,47.7-7s31.8,2.3,48,7
		c16.2,4.6,30.8,11.9,43.8,21.9v98h-74.8V58.4c0-3.4-1.9-5.2-5.7-5.2H79.3c-3.8,0-5.7,1.7-5.7,5.2L73.7,145.1L73.7,145.1z"/>
	<path class="st0" d="M333,58.4c0-3.4-1.9-5.2-5.7-5.2h-23.7c-3.8,0-5.7,1.7-5.7,5.2v272.8c0,3.4,1.9,5.2,5.7,5.2h23.7
		c3.8,0,5.7-1.7,5.7-5.2V225.9h74.3v134.6c-13.1,10-27.8,17.3-44.1,21.9s-32.4,7-48.2,7s-31.9-2.3-48.2-7
		c-16.3-4.6-31-11.9-44.1-21.9V29c13.1-10,27.8-17.3,44.1-21.9s32.4-7,48.2-7s31.9,2.3,48.2,7c16.3,4.6,31,11.9,44.1,21.9v133H333
		V58.4z"/>
	<path class="st0" d="M541.3,389.5c-15.8,0-32-2.3-48.5-7c-16.5-4.6-31.3-11.9-44.3-21.9V29c13.1-10,27.8-17.3,44.3-21.9
		s32.7-7,48.5-7s32,2.3,48.5,7S621.1,19,634.1,29v331.5c-13.1,10-27.8,17.3-44.3,21.9C573.3,387.1,557.1,389.5,541.3,389.5z
		 M553.2,336.4c3.8,0,5.7-1.7,5.7-5.2V58.4c0-3.4-1.9-5.2-5.7-5.2h-23.7c-3.8,0-5.7,1.7-5.7,5.2v272.8c0,3.4,1.9,5.2,5.7,5.2H553.2z
		"/>
	<path class="st0" d="M784.7,240.9c0-3.4-1.7-5.2-5.2-5.2h-28.9v146.4h-75.3V7.3h85.6c19.9,0,38.8,1.8,56.5,5.4S850,22.3,862,30.5
		v151.6c-3.4,4.5-7.7,8.9-12.9,13.4s-10.5,8.6-16,12.4c5.5,3.8,10.8,7.7,16,11.9c5.2,4.1,9.4,8.3,12.9,12.4v150h-77.3L784.7,240.9
		L784.7,240.9z M750.7,178.6h28.9c3.4,0,5.2-1.7,5.2-5.2V64.5c0-4.8-2.4-7.2-7.2-7.2h-26.8L750.7,178.6L750.7,178.6z"/>
	<path class="st0" d="M1013.6,58.4c0-3.4-1.9-5.2-5.7-5.2h-23.7c-3.8,0-5.7,1.7-5.7,5.2v272.8c0,3.4,1.9,5.2,5.7,5.2h23.7
		c3.8,0,5.7-1.7,5.7-5.2V225.9h74.3v134.6c-13.1,10-27.8,17.3-44.1,21.9c-16.3,4.6-32.4,7-48.2,7c-15.8,0-31.9-2.3-48.2-7
		c-16.3-4.6-31-11.9-44.1-21.9V29c13.1-10,27.8-17.3,44.1-21.9c16.3-4.6,32.4-7,48.2-7c15.8,0,31.9,2.3,48.2,7
		c16.3,4.6,31,11.9,44.1,21.9v133h-74.3V58.4z"/>
	<path class="st0" d="M1129.1,7.3h75.3v159.8h36.6V7.3h75.3v374.9H1241V226.4h-36.6v155.7h-75.3V7.3z"/>
</g>
</svg>
