<?xml version="1.0" encoding="utf-8"?>
<!-- Generator: Adobe Illustrator 23.0.0, SVG Export Plug-In . SVG Version: 6.00 Build 0)  -->
<svg version="1.1" id="Layer_1" xmlns="http://www.w3.org/2000/svg" xmlns:xlink="http://www.w3.org/1999/xlink" x="0px" y="0px"
	 viewBox="0 0 468 60" style="enable-background:new 0 0 468 60;" xml:space="preserve">
<style type="text/css">
	.st0{fill:#F15A24;}
	.st1{fill:#DD4C1F;}
	.st2{fill:#FFFFFF;}
	.st3{fill:#F7931E;}
	.st4{fill:#FBB03B;}
</style>
<rect class="st0" width="468" height="60"/>
<path class="st1" d="M179.5,48.25H0v-36.5h179.5c2.21,0,4,1.79,4,4v28.5C183.5,46.46,181.71,48.25,179.5,48.25z"/>
<g>
	<path class="st2" d="M19.62,20.31c0.67,0,1.17,0.67,1.49,2.02c4.43,11.47,6.67,17.35,6.71,17.62v0.16c0,0.54-0.35,0.87-1.04,0.99
		h-0.06c-0.64,0-1.1-0.62-1.38-1.86l-2.48-6.39h-6.45l-3.02,7.92c-0.29,0.22-0.55,0.33-0.78,0.33h-0.12
		c-0.69-0.13-1.04-0.47-1.04-1.03v-0.06l1.88-5.04c3.27-8.47,5.05-13.18,5.33-14.11C19.02,20.49,19.33,20.31,19.62,20.31z
		 M19.62,24.47l-2.31,6.23h4.73v-0.06l-2.36-6.17H19.62z"/>
	<path class="st2" d="M43.31,20.25h0.22c0.66,0.14,1,0.43,1,0.89v10.89l0.06,1.86c0,1.44-0.59,2.94-1.77,4.51
		c-1.67,1.8-3.55,2.69-5.64,2.69h-0.44c-2.04,0-3.94-0.95-5.7-2.85c-1.07-1.51-1.61-3.08-1.61-4.69c0-2.44,1.09-4.49,3.27-6.16
		c1.39-0.91,2.83-1.37,4.32-1.37c1.92,0,3.73,0.75,5.42,2.26v-6.22l-0.06-0.87C42.58,20.57,42.89,20.25,43.31,20.25z M31.58,33.4
		v0.28c0,2.24,1.18,3.91,3.55,5.01c0.63,0.18,1.21,0.28,1.71,0.28h0.34c2.2,0,3.86-1.17,4.98-3.52c0.19-0.71,0.28-1.26,0.28-1.64
		v-0.33c0-2.23-1.2-3.9-3.6-5.01c-0.73-0.18-1.3-0.28-1.71-0.28H36.9c-2.2,0-3.86,1.16-4.98,3.46
		C31.69,32.29,31.58,32.87,31.58,33.4z"/>
	<path class="st2" d="M53.03,26.29c2.51,0,4.48,1.13,5.92,3.39l0.04,0.42v0.06c0,0.57-0.36,0.91-1.08,1.02
		c-0.48,0-0.97-0.41-1.46-1.24c-1.01-0.97-2.14-1.46-3.41-1.46c-1.67,0-2.99,0.79-3.96,2.37l-0.04,0.28c0,0.48,0.54,0.76,1.63,0.86
		c4.16,1,6.44,1.57,6.83,1.72c1.04,0.68,1.57,1.54,1.57,2.59v0.04c0,1.49-1.1,2.86-3.31,4.11c-0.95,0.43-1.96,0.64-3.03,0.64
		c-2.2,0-4.06-1.02-5.58-3.07c-0.15-0.21-0.22-0.41-0.22-0.6v-0.32c0-0.52,0.4-0.83,1.2-0.92c0.34,0,0.83,0.45,1.46,1.35
		c0.97,0.89,2.09,1.34,3.36,1.34c1.52,0,2.79-0.72,3.79-2.16l0.1-0.32v-0.06c0-0.47-0.32-0.73-0.97-0.8c-4.85-1.08-7.42-1.74-7.71-2
		c-0.9-0.68-1.35-1.5-1.35-2.47c0-1.36,0.99-2.67,2.97-3.93C50.87,26.58,51.95,26.29,53.03,26.29z"/>
	<path class="st2" d="M70.24,31.66h5.86c0.58,0,0.95,0.39,1.11,1.17c-0.18,0.74-0.55,1.11-1.11,1.11h-5.86
		c-0.64,0-1.01-0.41-1.11-1.22C69.33,32.01,69.7,31.66,70.24,31.66z"/>
	<path class="st2" d="M95.91,20.35h0.34c0.4,0,0.71,0.31,0.94,0.93l-0.06,0.54v10.95h1.71l0.5-0.04c0.51,0,0.85,0.36,1.04,1.09
		c0,0.49-0.31,0.86-0.94,1.09l-0.82-0.06h-1.49v5.31c0,0.48-0.35,0.79-1.04,0.93h-0.06c-0.7-0.13-1.06-0.47-1.06-1.03v-5.21h-7.43
		l-1.33,0.06c-0.55-0.23-0.82-0.56-0.82-0.99V33.7c0-0.25,0.19-0.52,0.56-0.82c5.88-7.6,8.98-11.65,9.3-12.16
		C95.49,20.48,95.71,20.35,95.91,20.35z M88.75,32.77h6.23v-8.05L88.75,32.77z"/>
	<path class="st2" d="M109.89,20.19c0.5,0,0.83,0.37,1,1.11c0,0.29-0.44,1.13-1.33,2.52l-2.75,4.78v0.06l0.84-0.06h0.48
		c2.01,0,3.73,1,5.14,3.01c0.63,1.11,0.94,2.18,0.94,3.23c0,2.08-0.96,3.81-2.87,5.21c-1.08,0.7-2.21,1.05-3.37,1.05h-0.28
		c-2,0-3.73-0.99-5.19-2.97c-0.63-1.13-0.94-2.22-0.94-3.29c0-1.41,0.52-2.79,1.55-4.16l5.96-10.21
		C109.37,20.28,109.65,20.19,109.89,20.19z M103.77,34.58v0.54c0,1.5,0.86,2.69,2.59,3.57c0.49,0.15,0.99,0.24,1.49,0.28
		c1.86,0,3.18-0.97,3.97-2.91l0.16-1.03v-0.22c0-1.92-1.05-3.24-3.15-3.96l-1.04-0.1c-1.81,0-3.12,0.99-3.93,2.96L103.77,34.58z"/>
	<path class="st2" d="M122.04,20.15c1.67,0,3.09,0.74,4.26,2.21c0.66,0.9,1,1.89,1,2.97v0.28c0,1.46-0.66,2.78-1.99,3.97
		c1.92,1.38,2.89,3.12,2.89,5.23c0,2.09-0.96,3.83-2.89,5.24c-1.08,0.7-2.21,1.05-3.38,1.05h-0.28c-2.01,0-3.75-0.99-5.22-2.97
		c-0.63-1.14-0.94-2.24-0.94-3.32c0-2.17,1.04-3.99,3.11-5.44c-0.83-0.64-1.39-1.52-1.67-2.65c-0.11-0.27-0.16-0.64-0.16-1.11v-0.28
		c0-1.84,0.89-3.33,2.67-4.46C120.32,20.39,121.19,20.15,122.04,20.15z M117.66,34.77c0,1.94,1.02,3.28,3.05,4.02
		c0.27,0.11,0.68,0.16,1.22,0.16c1.84,0,3.15-1.01,3.94-3.03l0.12-0.83v-0.55c0-1.56-0.91-2.77-2.73-3.63
		c-0.51-0.16-0.97-0.23-1.39-0.23c-1.98,0-3.33,1.01-4.04,3.04L117.66,34.77z M118.93,25.55c0,1.39,0.83,2.36,2.49,2.93l0.62,0.06
		c1.46,0,2.45-0.77,2.99-2.31l0.12-0.77c0-1.52-0.82-2.53-2.45-3.03l-0.72-0.06c-1.42,0-2.4,0.75-2.94,2.26L118.93,25.55z"/>
	<path class="st2" d="M137.38,18.4c0.74,0.18,1.11,0.55,1.11,1.11v0.12l-0.76,2.45v0.06h0.06l2.34-1.46l0.35-0.06
		c0.74,0.15,1.11,0.51,1.11,1.11v0.17c0,0.4-0.29,0.73-0.88,0.99l-1.82-0.06h-1.05l2.23,1.81l0.18,0.47v0.29
		c0,0.57-0.37,0.92-1.11,1.05c-0.71,0-1.14-0.54-1.29-1.63l-0.47-1.4h-0.06l-0.7,2.39c-0.29,0.43-0.64,0.64-1.05,0.64
		c-0.74-0.17-1.11-0.5-1.11-0.99v-0.23c0-0.46,0.45-0.94,1.35-1.46l1.11-0.93h-0.06l-2.87,0.06c-0.59-0.23-0.88-0.6-0.88-1.11v-0.06
		c0-0.59,0.39-0.96,1.17-1.11c0.28,0,0.95,0.39,1.99,1.17l0.7,0.35v-0.06l-0.76-2.45v-0.12C136.21,18.94,136.6,18.57,137.38,18.4z"
		/>
	<path class="st2" d="M153.07,20.19c0.5,0,0.83,0.37,1,1.11c0,0.29-0.44,1.13-1.33,2.52l-2.75,4.78v0.06l0.84-0.06h0.48
		c2.01,0,3.73,1,5.14,3.01c0.63,1.11,0.94,2.18,0.94,3.23c0,2.08-0.96,3.81-2.87,5.21c-1.08,0.7-2.21,1.05-3.37,1.05h-0.28
		c-2,0-3.73-0.99-5.19-2.97c-0.63-1.13-0.94-2.22-0.94-3.29c0-1.41,0.52-2.79,1.55-4.16l5.96-10.21
		C152.55,20.28,152.83,20.19,153.07,20.19z M146.95,34.58v0.54c0,1.5,0.86,2.69,2.59,3.57c0.49,0.15,0.99,0.24,1.49,0.28
		c1.86,0,3.18-0.97,3.97-2.91l0.16-1.03v-0.22c0-1.92-1.05-3.24-3.15-3.96l-1.04-0.1c-1.81,0-3.12,0.99-3.93,2.96L146.95,34.58z"/>
	<path class="st2" d="M165.2,20.18c2.41,0,4.26,1.29,5.54,3.86c0.7,2.15,1.05,4.13,1.05,5.94v1.27c0,2.24-0.46,4.5-1.39,6.77
		c-1.34,2.06-3.03,3.09-5.08,3.09h-0.18c-2.23,0-3.98-1.17-5.26-3.52c-0.81-2.07-1.22-4.36-1.22-6.89v-0.16
		c0-2.68,0.48-5.1,1.44-7.27C161.48,21.21,163.18,20.18,165.2,20.18z M160.66,30.37v0.6c0,2.53,0.46,4.66,1.39,6.39
		c0.9,1.1,1.91,1.65,3.05,1.65h0.16c2.5,0,3.96-1.91,4.38-5.72c0.11-0.6,0.18-1.5,0.22-2.69c0-2.13-0.37-4.16-1.11-6.12
		c-0.92-1.47-2.08-2.2-3.49-2.2c-1.71,0-2.96,0.94-3.77,2.81C160.94,26.92,160.66,28.68,160.66,30.37z"/>
</g>
<polygon class="st3" points="422.44,59.72 375.94,59.72 414.87,0 460.43,0 "/>
<polygon class="st4" points="468,59.72 421.5,59.72 460.43,0 468,0 "/>
</svg>
